# xmcd
# 
# Track frame offsets:
#     150
#     15910
#     28470
#     43585
#     62074
#     80355
#     101058
#     114177
#     128078
#     143346
#     160865
#     179266
#     200668
#     215867
#     237431
#     248380
#     268893
#     288761
#     300330
# 
# Disc length: 4256
# 
# Revision: 3
# Processed by: cddbd v1.5.2PL0 Copyright (c) Steve Scherf et al.
# Submitted via: fre:ac v1.0.31
# 
DISCID=01109e13
DTITLE=Blues - American Music: The Hightone Records Story
DYEAR=2006
DGENRE=Blues
TTITLE0=Phone Booth
TTITLE1=Stoned, Cold and Blue
TTITLE2=Tore Up
TTITLE3=Smoking Gun
TTITLE4=747
TTITLE5=Don't Be Afraid Of The Dark
TTITLE6=I Want To Do Everything For You
TTITLE7=I'll Get To Heaven On My Own
TTITLE8=Moaning and Groaning
TTITLE9=They Call Me Mr Sundown
TTITLE10=Sugar Bee
TTITLE11=The Devil's Living There
TTITLE12=Going Down South
TTITLE13=It's A Minor Thing
TTITLE14=Fast Food Slow Death
TTITLE15=Eyesight To The Blind
TTITLE16=Miss Ida B
TTITLE17=How Could You Do It
TTITLE18=September 11th Blues
EXTD=
EXTT0=
EXTT1=
EXTT2=
EXTT3=
EXTT4=
EXTT5=
EXTT6=
EXTT7=
EXTT8=
EXTT9=
EXTT10=
EXTT11=
EXTT12=
EXTT13=
EXTT14=
EXTT15=
EXTT16=
EXTT17=
EXTT18=
PLAYORDER=
